<?xml version="1.0" encoding="utf-8"?>
<!-- Generator: Adobe Illustrator 24.0.2, SVG Export Plug-In . SVG Version: 6.00 Build 0)  -->
<svg version="1.1" id="Warstwa_1" xmlns="http://www.w3.org/2000/svg" xmlns:xlink="http://www.w3.org/1999/xlink" x="0px" y="0px"
	 viewBox="0 0 12 11" style="enable-background:new 0 0 12 11;" xml:space="preserve">
<style type="text/css">
	.st0{clip-path:url(#SVGID_2_);}
</style>
<g>
	<defs>
		<rect id="SVGID_1_" width="12" height="11"/>
	</defs>
	<clipPath id="SVGID_2_">
		<use xlink:href="#SVGID_1_"  style="overflow:visible;"/>
	</clipPath>
	<g class="st0">
		<path d="M11.8,0.2c-0.2-0.2-0.5-0.3-0.7-0.1c0,0-0.1,0.1-0.1,0.1L7.5,4.6L3.8,9.2L1,5.7C0.9,5.5,0.5,5.5,0.3,5.6
			c0,0-0.1,0.1-0.1,0.1c-0.2,0.3-0.2,0.7,0,1.1l3.2,4c0.2,0.2,0.5,0.3,0.7,0.1c0,0,0.1-0.1,0.1-0.1l7.6-9.5c0.5,0,0.9,0,0.9-0.5
			C12.7,0.3,12.3-0.1,11.8,0.2z"/>
	</g>
</g>
</svg>
